<svg width="641" height="96" viewBox="0 0 641 96" fill="none" xmlns="http://www.w3.org/2000/svg">
<g clip-path="url(#clip0_9_3)">
<path d="M0 45.5278C0 25.9459 12.245 19.1902 22.6287 19.1902C26.1794 18.9918 29.7191 19.7392 32.886 21.3563C36.0528 22.9733 38.7333 25.4019 40.6533 28.3937L33.3063 34.464C32.2257 32.6829 30.721 31.1966 28.9264 30.1375C27.1318 29.0784 25.1029 28.4793 23.0205 28.3937C16.2613 28.3937 11.9021 33.7787 11.9021 45.0383C11.9021 55.2208 15.6246 62.0744 24.343 62.0744C28.4548 62.0136 32.4251 60.5643 35.6084 57.9623L40.0166 65.795C35.1358 69.5396 29.1231 71.5083 22.9716 71.3758C8.3266 71.3758 0 62.0745 0 45.5278Z" fill="#F49819"/>
<path d="M43.837 45.2341C43.837 24.869 56.5718 19.1902 66.6617 19.1902C73.9107 19.1902 88.0169 21.4421 88.0169 43.6675C88.0169 62.4661 78.2209 71.18 65.0943 71.18C51.9677 71.18 43.837 62.9556 43.837 45.2341ZM76.0658 45.5278C76.0658 34.562 73.5188 27.8062 66.2698 27.8062C59.0208 27.8062 55.984 34.4641 55.984 43.8633C55.984 53.2626 57.1596 62.6619 65.78 62.6619C73.029 62.6619 76.0658 55.7104 76.0658 45.5278Z" fill="#F49819"/>
<path d="M97.0292 20.6588H106.825L107.805 26.7292C109.338 24.3486 111.46 22.4039 113.966 21.0831C116.471 19.7624 119.275 19.1104 122.107 19.1902C124.895 18.9757 127.683 19.6089 130.104 21.0068C132.525 22.4047 134.467 24.5019 135.674 27.023C137.134 24.5532 139.233 22.5223 141.749 21.144C144.266 19.7656 147.108 19.0907 149.976 19.1902C159.772 19.1902 165.552 24.9669 165.552 36.5202V69.9072H153.944V38.87C153.944 33.2891 152.817 28.3937 146.352 28.3937C145.121 28.4299 143.909 28.7153 142.791 29.2327C141.673 29.7501 140.672 30.4888 139.848 31.404C139.024 32.3192 138.394 33.392 137.997 34.5574C137.599 35.7229 137.442 36.9568 137.536 38.1846V70.2988H125.878V38.87C125.878 33.5829 125.193 28.1979 118.384 28.1979C117.153 28.234 115.942 28.5195 114.824 29.0369C113.706 29.5543 112.705 30.293 111.881 31.2082C111.056 32.1234 110.427 33.1962 110.029 34.3616C109.632 35.5271 109.475 36.761 109.568 37.9888V69.8093H97.9108V29.177L97.0292 20.6588Z" fill="#F49819"/>
<path d="M176.866 20.6589H186.662L187.642 26.7293C189.175 24.3487 191.297 22.4039 193.803 21.0831C196.308 19.7624 199.113 19.1104 201.944 19.1902C204.725 18.979 207.505 19.6142 209.918 21.0123C212.331 22.4104 214.264 24.5059 215.463 27.023C216.922 24.5533 219.021 22.5224 221.538 21.144C224.055 19.7656 226.897 19.0907 229.765 19.1902C239.561 19.1902 245.34 24.9669 245.34 36.5202V69.9072H233.683V38.87C233.683 33.0933 232.704 28.1979 226.238 28.1979C225.007 28.2341 223.796 28.5195 222.678 29.0369C221.56 29.5543 220.558 30.293 219.734 31.2082C218.91 32.1234 218.28 33.1962 217.883 34.3616C217.485 35.5271 217.329 36.761 217.422 37.9888V70.103H205.765V38.87C205.765 33.5829 205.079 28.1979 198.32 28.1979C197.088 28.2341 195.877 28.5195 194.759 29.0369C193.641 29.5543 192.64 30.293 191.816 31.2082C190.992 32.1234 190.362 33.1962 189.964 34.3616C189.567 35.5271 189.41 36.761 189.503 37.9888V69.8093H177.748V29.177L176.866 20.6589Z" fill="#F49819"/>
<path d="M257.242 54.0459V20.6588H268.9V51.8919C268.9 57.8644 270.075 62.2703 276.639 62.2703C279.128 62.21 281.5 61.2048 283.274 59.4589C285.048 57.713 286.091 55.3575 286.19 52.871V20.6588H297.847V61.6828L298.63 69.9072H288.835L288.051 64.1306C286.461 66.4049 284.331 68.2487 281.851 69.4963C279.372 70.7439 276.621 71.3561 273.847 71.2779C262.728 71.2779 257.242 65.5013 257.242 54.0459Z" fill="#F49819"/>
<path d="M309.896 20.6588H319.692L320.671 26.8271C322.348 24.396 324.606 22.4233 327.242 21.0893C329.877 19.7552 332.805 19.1023 335.757 19.1902C345.553 19.1902 351.333 24.6731 351.333 36.2264V69.9072H339.676V38.772C339.676 32.7996 338.598 28.1978 332.329 28.1978C329.731 28.1978 327.239 29.2294 325.402 31.0655C323.565 32.9017 322.533 35.392 322.533 37.9888V69.9072H310.68V29.1769L309.896 20.6588Z" fill="#F49819"/>
<path d="M362.353 6.46204C362.353 4.68329 363.06 2.9774 364.319 1.71963C365.577 0.461869 367.284 -0.24472 369.064 -0.24472C370.843 -0.24472 372.55 0.461869 373.808 1.71963C375.067 2.9774 375.774 4.68329 375.774 6.46204C375.781 7.34217 375.61 8.21464 375.27 9.02671C374.93 9.83878 374.43 10.5736 373.798 11.1868C373.166 11.7999 372.416 12.2787 371.594 12.5941C370.772 12.9095 369.895 13.0551 369.015 13.022C368.135 13.0704 367.256 12.9347 366.432 12.6235C365.609 12.3123 364.859 11.8325 364.232 11.2149C363.605 10.5972 363.114 9.85534 362.79 9.03687C362.467 8.2184 362.318 7.34136 362.353 6.46204ZM374.892 20.6589V69.9072H363.235V20.6589H374.892Z" fill="#F49819"/>
<path d="M387.137 54.8292V1.86029H398.843V20.6588H412.068V29.6665H398.843V54.6334C398.843 60.7037 401.488 62.4661 405.505 62.4661C407.78 62.4007 409.989 61.6874 411.872 60.41L414.811 67.949C411.07 70.241 406.757 71.4289 402.37 71.3758C388.411 71.3758 387.137 63.4452 387.137 54.8292Z" fill="#F49819"/>
<path d="M423.333 83.0271C423.553 79.6348 424.596 76.3469 426.37 73.4471C428.145 70.5473 430.599 68.1227 433.521 66.3825C425.488 65.2076 420.492 60.8995 420.492 50.5212V20.6588H432.15V49.2484C432.15 55.1229 432.737 59.5288 440.476 59.5288C441.683 59.5227 442.876 59.2758 443.986 58.8026C445.096 58.3293 446.1 57.6392 446.94 56.7728C447.779 55.9064 448.437 54.8811 448.875 53.7571C449.313 52.6331 449.521 51.4331 449.489 50.2274V20.8547H461.146V63.9347C461.139 68.4922 460.779 73.0423 460.068 77.5441C458.207 89.3911 451.35 96.1469 439.105 96.1469C428.231 95.951 423.333 90.9577 423.333 83.0271ZM449.587 73.2361V64.1306C440.966 67.949 433.619 73.0403 433.619 81.0689C433.534 81.9604 433.653 82.8595 433.969 83.6977C434.284 84.5359 434.787 85.2909 435.44 85.905C436.092 86.5191 436.876 86.976 437.732 87.2409C438.588 87.5057 439.493 87.5714 440.378 87.4329C447.04 87.4329 449.489 81.8521 449.489 73.334L449.587 73.2361Z" fill="#F49819"/>
<path d="M470.795 45.5278C470.795 25.946 483.04 19.1902 493.424 19.1902C496.982 18.9829 500.532 19.7261 503.708 21.3436C506.885 22.961 509.573 25.3944 511.497 28.3937L504.15 34.464C503.069 32.6829 501.565 31.1966 499.77 30.1375C497.976 29.0784 495.947 28.4793 493.864 28.3937C487.105 28.3937 482.501 33.6808 482.501 44.9403C482.501 55.1229 486.224 61.9766 494.942 61.9766C499.054 61.9157 503.024 60.4664 506.207 57.8643L510.616 65.6971C505.735 69.4417 499.722 71.4104 493.57 71.2779C479.121 71.3759 470.795 62.0745 470.795 45.5278Z" fill="#1D1D1B"/>
<path d="M515.122 47.388C515.122 30.156 523.644 19.1902 540.493 19.1902C546.454 19.3671 552.346 20.5249 557.93 22.617V60.5079L558.91 69.9072H548.82L548.134 64.718H547.742C546.248 66.8984 544.223 68.6626 541.858 69.8446C539.493 71.0265 536.866 71.5872 534.224 71.4737C519.432 71.3758 515.122 60.2142 515.122 47.388ZM546.469 54.3396V28.9811C544.1 28.0448 541.571 27.5792 539.024 27.6104C529.718 27.6104 526.583 36.4222 526.583 47.1922C526.583 55.2208 528.64 62.9556 536.771 62.9556C537.983 63.0702 539.205 62.9342 540.362 62.5559C541.519 62.1776 542.586 61.5652 543.496 60.7569C544.406 59.9485 545.139 58.9616 545.651 57.8575C546.162 56.7535 546.441 55.556 546.469 54.3396Z" fill="#1D1D1B"/>
<path d="M570.273 54.8292V1.86029H581.93V20.6588H595.204V29.6665H582.028V54.6334C582.028 60.7037 584.722 62.4661 588.739 62.4661C591.014 62.4007 593.223 61.6874 595.106 60.41L598.045 67.949C594.304 70.241 589.991 71.4289 585.604 71.3758C571.694 71.3758 570.273 63.4452 570.273 54.8292Z" fill="#1D1D1B"/>
<path d="M600.885 46.3111C600.885 31.9184 609.212 19.1902 624.788 19.1902C634.584 19.1902 640.363 24.0857 640.363 32.7996C640.363 47.8776 623.416 50.2274 612.739 50.3254C612.705 51.9373 612.999 53.5393 613.604 55.034C614.208 56.5288 615.111 57.8851 616.256 59.0206C617.401 60.156 618.765 61.047 620.266 61.6393C621.766 62.2316 623.371 62.5129 624.984 62.4661C629.45 62.3717 633.772 60.8634 637.327 58.1581L640.951 65.8929C635.954 69.5465 629.901 71.4714 623.71 71.3758C607.547 71.3758 600.885 60.9975 600.885 46.3111ZM629.98 33.2891C630.032 32.5086 629.914 31.7261 629.636 30.995C629.358 30.2639 628.925 29.6015 628.367 29.053C627.809 28.5046 627.139 28.083 626.403 27.8171C625.667 27.5512 624.882 27.4473 624.102 27.5125C616.265 27.5125 612.641 34.7578 612.347 41.9052C617.637 42.0031 629.98 40.8281 629.98 33.2891Z" fill="#1D1D1B"/>
</g>
<defs>
<clipPath id="clip0_9_3">
<rect width="641" height="96" fill="white"/>
</clipPath>
</defs>
</svg>
