<svg width="48" height="48" viewBox="0 0 48 48" fill="none" xmlns="http://www.w3.org/2000/svg">
<path d="M0 16.1C0 10.4051 0 7.55764 1.12587 5.39026C2.07462 3.56382 3.56382 2.07462 5.39026 1.12587C7.55764 0 10.4051 0 16.1 0H31.9C37.5949 0 40.4424 0 42.6097 1.12587C44.4362 2.07462 45.9254 3.56382 46.8741 5.39026C48 7.55764 48 10.4051 48 16.1V31.9C48 37.5949 48 40.4424 46.8741 42.6097C45.9254 44.4362 44.4362 45.9254 42.6097 46.8741C40.4424 48 37.5949 48 31.9 48H16.1C10.4051 48 7.55764 48 5.39026 46.8741C3.56382 45.9254 2.07462 44.4362 1.12587 42.6097C0 40.4424 0 37.5949 0 31.9V16.1Z" fill="#1080F8"/>
<path d="M24.5167 17.6701C21.4713 13.7925 18.9247 12.3149 15.8768 12.3149C9.66295 12.3149 4.90202 20.4015 4.90202 28.9607C4.90202 34.3169 7.4932 37.695 11.8335 37.695C14.9572 37.695 17.2039 36.2225 21.1977 29.2409C21.1977 29.2409 22.8627 26.3009 24.0081 24.2756C24.4093 24.9235 24.8311 25.6207 25.276 26.3702L27.1491 29.5209C30.7972 35.6261 32.8302 37.695 36.5134 37.695C40.7417 37.695 43.0947 34.2708 43.0947 28.8034C43.0947 19.8414 38.2265 12.3149 32.3124 12.3149C29.1808 12.3149 26.7329 14.6737 24.5167 17.6701ZM30.3734 26.7115L28.1341 22.9768C27.5283 21.9913 26.9476 21.0855 26.3872 20.2553C28.4052 17.1402 30.0701 15.5882 32.05 15.5882C36.1634 15.5882 39.4541 21.6444 39.4541 29.0833C39.4541 31.9188 38.5252 33.5642 36.6009 33.5642C34.7565 33.5642 33.8753 32.3462 30.3734 26.7115ZM9.03276 29.0308C9.03276 22.817 12.1309 16.4633 15.8242 16.4633C17.8242 16.4633 19.4955 17.6183 22.0556 21.2832C19.6247 25.0118 18.1521 27.3504 18.1521 27.3504C14.9141 32.4264 13.7938 33.5642 11.9911 33.5642C10.1355 33.5642 9.03276 31.9353 9.03276 29.0308Z" fill="white"/>
</svg>
